<!-- Generated by IcoMoon.io -->
<svg version="1.1" xmlns="http://www.w3.org/2000/svg" width="32" height="32" viewBox="0 0 32 32">
<title>customerfour</title>
<path fill="#8e8f99" d="M4.982 12.959h-0.001c-0.909 0-1.646 0.664-1.646 1.484v0.001c0 0.819 0.737 1.484 1.646 1.484h0.001c0.909 0 1.646-0.664 1.646-1.484v-0.001c0-0.819-0.737-1.484-1.646-1.484z"></path>
<path fill="#8e8f99" d="M17.128 12.485c-0.003-1.138-0.505-2.229-1.398-3.034s-2.102-1.258-3.364-1.261v0c-1.263 0.002-2.473 0.455-3.366 1.26s-1.396 1.896-1.398 3.034v6.276c0 0 9.525-0.956 9.526-6.275v-0.001z"></path>
<path fill="#8e8f99" d="M0 20.821c0.002 0.792 0.352 1.551 0.973 2.111s1.463 0.876 2.341 0.878c0.878-0.002 1.72-0.318 2.34-0.878s0.971-1.318 0.973-2.11v-4.367c0 0-6.628 0.666-6.628 4.366zM3.314 21.603c-0.172 0-0.339-0.046-0.482-0.132s-0.254-0.208-0.32-0.351-0.083-0.3-0.049-0.452c0.033-0.152 0.116-0.291 0.237-0.401s0.276-0.184 0.444-0.214c0.168-0.030 0.343-0.015 0.501 0.045s0.294 0.16 0.389 0.288c0.095 0.129 0.146 0.28 0.146 0.435 0 0.103-0.022 0.205-0.065 0.3s-0.107 0.182-0.188 0.255c-0.081 0.073-0.176 0.131-0.282 0.17s-0.219 0.060-0.333 0.060v-0.003z"></path>
<path fill="#8e8f99" d="M9.375 20.196v1.625h-0.335v-1.625h0.335zM10.022 20.89v0.261h-0.739v-0.261h0.739zM10.1 20.196v0.262h-0.817v-0.262h0.817zM11.629 20.971v0.077c0 0.123-0.017 0.234-0.050 0.333s-0.081 0.182-0.142 0.251c-0.061 0.068-0.134 0.121-0.219 0.157s-0.177 0.055-0.28 0.055c-0.102 0-0.195-0.018-0.28-0.055s-0.157-0.089-0.219-0.157c-0.062-0.069-0.11-0.153-0.144-0.251s-0.050-0.209-0.050-0.333v-0.077c0-0.124 0.017-0.235 0.050-0.333s0.081-0.182 0.142-0.251c0.062-0.069 0.135-0.122 0.219-0.158s0.178-0.055 0.28-0.055c0.103 0 0.196 0.018 0.28 0.055s0.158 0.089 0.219 0.158c0.062 0.069 0.109 0.153 0.143 0.251s0.051 0.208 0.051 0.333zM11.291 21.048v-0.079c0-0.086-0.008-0.162-0.023-0.228s-0.039-0.121-0.069-0.165-0.068-0.078-0.112-0.1c-0.044-0.023-0.094-0.035-0.151-0.035s-0.107 0.012-0.151 0.035c-0.043 0.022-0.080 0.056-0.11 0.1s-0.052 0.1-0.068 0.165c-0.016 0.066-0.023 0.141-0.023 0.228v0.079c0 0.086 0.008 0.161 0.023 0.228s0.039 0.121 0.069 0.166c0.030 0.045 0.068 0.078 0.112 0.102s0.094 0.035 0.151 0.035c0.057 0 0.107-0.012 0.151-0.035s0.081-0.057 0.11-0.102c0.030-0.045 0.052-0.101 0.068-0.166s0.023-0.142 0.023-0.228zM12.716 21.396c0-0.029-0.004-0.055-0.013-0.078s-0.024-0.045-0.047-0.065c-0.023-0.020-0.055-0.040-0.097-0.059s-0.096-0.039-0.162-0.060c-0.074-0.024-0.144-0.051-0.21-0.080s-0.123-0.064-0.174-0.104c-0.050-0.040-0.089-0.087-0.118-0.14s-0.042-0.114-0.042-0.184c0-0.068 0.015-0.129 0.045-0.184s0.071-0.103 0.125-0.143c0.054-0.040 0.117-0.071 0.19-0.093s0.154-0.032 0.242-0.032c0.12 0 0.224 0.022 0.314 0.065s0.159 0.102 0.208 0.177c0.050 0.075 0.075 0.161 0.075 0.258h-0.333c0-0.048-0.010-0.089-0.030-0.125s-0.049-0.065-0.089-0.086c-0.039-0.021-0.089-0.031-0.15-0.031-0.058 0-0.106 0.009-0.145 0.027s-0.068 0.041-0.087 0.070c-0.019 0.029-0.029 0.062-0.029 0.098 0 0.027 0.007 0.052 0.020 0.075s0.035 0.043 0.063 0.062 0.061 0.038 0.102 0.055c0.040 0.017 0.087 0.034 0.139 0.050 0.089 0.027 0.166 0.057 0.233 0.090s0.124 0.071 0.17 0.113c0.045 0.042 0.080 0.089 0.103 0.142s0.035 0.113 0.035 0.18c0 0.071-0.014 0.134-0.041 0.19s-0.067 0.103-0.119 0.142c-0.052 0.039-0.114 0.068-0.186 0.088s-0.153 0.030-0.242 0.030c-0.080 0-0.16-0.010-0.238-0.031s-0.149-0.054-0.213-0.097c-0.063-0.043-0.114-0.098-0.152-0.165s-0.057-0.146-0.057-0.238h0.336c0 0.051 0.008 0.093 0.023 0.128s0.038 0.063 0.066 0.085c0.029 0.022 0.063 0.037 0.103 0.047s0.084 0.015 0.132 0.015c0.058 0 0.106-0.008 0.143-0.025s0.066-0.039 0.084-0.068c0.019-0.029 0.028-0.062 0.028-0.098zM14.005 20.196v1.625h-0.334v-1.625h0.334zM14.505 20.196v0.262h-1.326v-0.262h1.326zM15.787 21.56v0.261h-0.865v-0.261h0.865zM15.031 20.196v1.625h-0.335v-1.625h0.335zM15.674 20.858v0.254h-0.752v-0.254h0.752zM15.786 20.196v0.262h-0.864v-0.262h0.864zM15.982 20.196h0.606c0.124 0 0.231 0.019 0.32 0.056s0.159 0.092 0.208 0.165 0.073 0.163 0.073 0.269c0 0.087-0.015 0.162-0.045 0.224s-0.070 0.113-0.124 0.155c-0.053 0.041-0.115 0.074-0.186 0.098l-0.106 0.056h-0.527l-0.002-0.261h0.392c0.059 0 0.108-0.010 0.146-0.031s0.068-0.050 0.087-0.087c0.020-0.037 0.030-0.080 0.030-0.129 0-0.052-0.010-0.097-0.029-0.135s-0.049-0.067-0.088-0.087-0.089-0.030-0.148-0.030h-0.271v1.363h-0.335v-1.625zM16.89 21.821l-0.371-0.724 0.354-0.002 0.375 0.711v0.016h-0.358zM18.648 21.242h-0.414v-0.261h0.414c0.064 0 0.116-0.010 0.156-0.031s0.070-0.051 0.088-0.089c0.019-0.038 0.028-0.081 0.028-0.128s-0.009-0.093-0.028-0.135c-0.019-0.042-0.048-0.075-0.088-0.1s-0.092-0.038-0.156-0.038h-0.298v1.363h-0.335v-1.625h0.633c0.127 0 0.236 0.023 0.327 0.069s0.161 0.108 0.21 0.189c0.048 0.080 0.073 0.172 0.073 0.276 0 0.105-0.024 0.196-0.073 0.272s-0.118 0.136-0.21 0.177c-0.091 0.042-0.2 0.062-0.327 0.062zM20.579 21.56v0.261h-0.865v-0.261h0.865zM19.823 20.196v1.625h-0.335v-1.625h0.335zM20.466 20.858v0.254h-0.752v-0.254h0.752zM20.578 20.196v0.262h-0.864v-0.262h0.864zM21.523 20.196v1.625h-0.334v-1.625h0.334zM22.023 20.196v0.262h-1.326v-0.262h1.326zM23.305 21.56v0.261h-0.865v-0.261h0.865zM22.549 20.196v1.625h-0.335v-1.625h0.335zM23.192 20.858v0.254h-0.752v-0.254h0.752zM23.303 20.196v0.262h-0.864v-0.262h0.864zM23.5 20.196h0.606c0.124 0 0.231 0.019 0.32 0.056s0.159 0.092 0.208 0.165c0.048 0.073 0.073 0.163 0.073 0.269 0 0.087-0.015 0.162-0.045 0.224s-0.070 0.113-0.124 0.155c-0.053 0.041-0.115 0.074-0.186 0.098l-0.106 0.056h-0.527l-0.002-0.261h0.392c0.059 0 0.108-0.010 0.146-0.031s0.068-0.050 0.087-0.087c0.020-0.037 0.030-0.080 0.030-0.129 0-0.052-0.010-0.097-0.029-0.135s-0.049-0.067-0.088-0.087c-0.039-0.020-0.089-0.030-0.148-0.030h-0.271v1.363h-0.335v-1.625zM24.408 21.821l-0.371-0.724 0.354-0.002 0.375 0.711v0.016h-0.358zM25.81 21.396c0-0.029-0.005-0.055-0.013-0.078s-0.024-0.045-0.047-0.065c-0.023-0.020-0.055-0.040-0.097-0.059s-0.096-0.039-0.162-0.060c-0.074-0.024-0.144-0.051-0.21-0.080s-0.123-0.064-0.174-0.104c-0.050-0.040-0.089-0.087-0.118-0.14s-0.042-0.114-0.042-0.184c0-0.068 0.015-0.129 0.045-0.184s0.071-0.103 0.125-0.143c0.054-0.040 0.117-0.071 0.19-0.093s0.154-0.032 0.242-0.032c0.12 0 0.224 0.022 0.314 0.065s0.158 0.102 0.208 0.177c0.050 0.075 0.075 0.161 0.075 0.258h-0.333c0-0.048-0.010-0.089-0.030-0.125s-0.049-0.065-0.089-0.086c-0.039-0.021-0.089-0.031-0.15-0.031-0.058 0-0.106 0.009-0.145 0.027s-0.068 0.041-0.087 0.070c-0.019 0.029-0.029 0.062-0.029 0.098 0 0.027 0.007 0.052 0.020 0.075s0.035 0.043 0.063 0.062 0.061 0.038 0.102 0.055c0.040 0.017 0.087 0.034 0.14 0.050 0.089 0.027 0.166 0.057 0.233 0.090s0.124 0.071 0.17 0.113c0.045 0.042 0.080 0.089 0.103 0.142s0.035 0.113 0.035 0.18c0 0.071-0.014 0.134-0.041 0.19s-0.067 0.103-0.119 0.142c-0.052 0.039-0.114 0.068-0.186 0.088s-0.153 0.030-0.242 0.030c-0.080 0-0.16-0.010-0.238-0.031s-0.149-0.054-0.213-0.097c-0.063-0.043-0.114-0.098-0.152-0.165s-0.057-0.146-0.057-0.238h0.336c0 0.051 0.008 0.093 0.023 0.128s0.038 0.063 0.066 0.085c0.029 0.022 0.063 0.037 0.103 0.047s0.084 0.015 0.132 0.015c0.058 0 0.106-0.008 0.143-0.025s0.066-0.039 0.084-0.068c0.019-0.029 0.028-0.062 0.028-0.098z"></path>
</svg>
