<!-- Generated by IcoMoon.io -->
<svg version="1.1" xmlns="http://www.w3.org/2000/svg" width="32" height="32" viewBox="0 0 32 32">
<title>customersix</title>
<path fill="#8e8f99" d="M16.18 15.64c-0.151-0.201-0.223-0.439-0.206-0.678v-0.983c0-0.301 0.068-0.53 0.205-0.687s0.372-0.235 0.705-0.234c0.313 0 0.535 0.067 0.666 0.2 0.143 0.17 0.213 0.378 0.197 0.588v0.231h-0.56v-0.234c0.002-0.077-0.003-0.153-0.016-0.229-0.008-0.052-0.036-0.1-0.080-0.136-0.058-0.039-0.13-0.058-0.203-0.053-0.077-0.005-0.153 0.015-0.213 0.056-0.049 0.040-0.081 0.093-0.093 0.15-0.016 0.080-0.023 0.162-0.022 0.243v1.193c-0.009 0.115 0.016 0.23 0.072 0.335 0.028 0.035 0.067 0.064 0.112 0.081s0.095 0.024 0.144 0.019c0.072 0.005 0.143-0.014 0.198-0.054 0.046-0.039 0.075-0.090 0.083-0.145 0.013-0.079 0.019-0.159 0.017-0.239v-0.242h0.56v0.221c0.016 0.219-0.052 0.436-0.194 0.618-0.129 0.146-0.348 0.219-0.67 0.219s-0.566-0.078-0.704-0.24z"></path>
<path fill="#8e8f99" d="M18.511 15.65c-0.141-0.153-0.212-0.376-0.212-0.671v-1.034c0-0.292 0.071-0.513 0.212-0.663s0.378-0.225 0.709-0.224c0.329 0 0.564 0.075 0.706 0.224s0.213 0.371 0.213 0.663v1.034c0 0.292-0.072 0.516-0.216 0.67s-0.378 0.231-0.704 0.231-0.567-0.078-0.709-0.23zM19.481 15.402c0.051-0.096 0.074-0.201 0.067-0.306v-1.266c0.006-0.103-0.016-0.206-0.066-0.3-0.028-0.036-0.068-0.065-0.114-0.082s-0.097-0.024-0.148-0.018c-0.050-0.006-0.102 0-0.148 0.018s-0.086 0.046-0.115 0.082c-0.051 0.094-0.074 0.197-0.067 0.3v1.272c-0.007 0.105 0.016 0.21 0.067 0.306 0.033 0.032 0.073 0.058 0.118 0.076s0.094 0.027 0.144 0.027 0.099-0.009 0.144-0.027c0.045-0.018 0.085-0.044 0.118-0.076v-0.006z"></path>
<path fill="#8e8f99" d="M20.813 13.088h0.603l0.453 1.908 0.464-1.908h0.587l0.059 2.754h-0.433l-0.046-1.914-0.447 1.914h-0.348l-0.464-1.921-0.043 1.921h-0.438l0.054-2.754z"></path>
<path fill="#8e8f99" d="M23.654 13.088h0.939c0.541 0 0.811 0.261 0.811 0.782 0 0.499-0.285 0.749-0.854 0.748h-0.32v1.224h-0.579l0.003-2.754zM24.456 14.265c0.057 0.006 0.115 0.002 0.17-0.013s0.106-0.040 0.148-0.074c0.066-0.093 0.096-0.202 0.083-0.311 0.003-0.084-0.006-0.168-0.028-0.25-0.008-0.027-0.023-0.053-0.043-0.076s-0.045-0.041-0.073-0.055c-0.080-0.033-0.169-0.048-0.258-0.044h-0.225v0.823h0.225z"></path>
<path fill="#8e8f99" d="M26.24 13.088h0.622l0.639 2.754h-0.54l-0.126-0.635h-0.555l-0.13 0.635h-0.548l0.639-2.754zM26.772 14.888l-0.217-1.156-0.217 1.156h0.433z"></path>
<path fill="#8e8f99" d="M28.016 13.088h0.406l0.777 1.571v-1.571h0.481v2.754h-0.386l-0.781-1.64v1.64h-0.497l0.001-2.754z"></path>
<path fill="#8e8f99" d="M30.806 14.792l-0.646-1.7h0.544l0.394 1.092 0.37-1.092h0.532l-0.637 1.7v1.050h-0.556v-1.050z"></path>
<path fill="#8e8f99" d="M17.075 17.046v0.144h-0.473v1.119h-0.198v-1.119h-0.475v-0.144h1.146z"></path>
<path fill="#8e8f99" d="M18.557 18.31h-0.153c-0.016 0.001-0.031-0.003-0.043-0.012-0.012-0.007-0.020-0.017-0.026-0.029l-0.137-0.3h-0.656l-0.137 0.3c-0.004 0.013-0.011 0.024-0.021 0.034-0.012 0.008-0.027 0.013-0.043 0.012h-0.153l0.579-1.263h0.202l0.587 1.258zM17.598 17.841h0.547l-0.232-0.514c-0.017-0.039-0.031-0.079-0.043-0.119-0.008 0.024-0.015 0.047-0.022 0.067l-0.021 0.053-0.23 0.513z"></path>
<path fill="#8e8f99" d="M19.556 18.186c0.036 0.002 0.073 0.002 0.109 0 0.031-0.003 0.062-0.008 0.093-0.015 0.028-0.006 0.056-0.014 0.083-0.023 0.026-0.009 0.051-0.020 0.078-0.031v-0.284h-0.232c-0.006 0-0.011-0-0.017-0.002s-0.010-0.004-0.014-0.008c-0.004-0.003-0.007-0.006-0.009-0.010s-0.003-0.008-0.003-0.013v-0.097h0.45v0.484c-0.037 0.023-0.075 0.043-0.116 0.060s-0.084 0.032-0.129 0.043c-0.047 0.012-0.096 0.021-0.145 0.026-0.056 0.005-0.113 0.008-0.169 0.008-0.1 0.001-0.199-0.015-0.292-0.047-0.087-0.030-0.166-0.075-0.232-0.132-0.065-0.058-0.115-0.126-0.149-0.2-0.037-0.084-0.055-0.173-0.053-0.262-0.001-0.090 0.016-0.179 0.052-0.264 0.033-0.075 0.084-0.143 0.149-0.2s0.145-0.101 0.232-0.131c0.099-0.032 0.205-0.048 0.311-0.047 0.054-0 0.108 0.004 0.161 0.011 0.047 0.007 0.093 0.017 0.138 0.032 0.041 0.013 0.079 0.030 0.116 0.050 0.035 0.020 0.069 0.042 0.101 0.066l-0.056 0.078c-0.004 0.007-0.011 0.013-0.019 0.017s-0.017 0.007-0.026 0.007c-0.013-0-0.025-0.004-0.036-0.010-0.017-0.008-0.036-0.018-0.057-0.030-0.025-0.013-0.051-0.025-0.078-0.034-0.035-0.012-0.070-0.021-0.107-0.028-0.049-0.008-0.098-0.011-0.147-0.011-0.076-0.001-0.152 0.011-0.224 0.035-0.064 0.022-0.123 0.056-0.17 0.1-0.048 0.045-0.085 0.099-0.108 0.157-0.052 0.137-0.052 0.284 0 0.421 0.025 0.059 0.065 0.114 0.116 0.159 0.048 0.043 0.105 0.077 0.169 0.1 0.074 0.022 0.152 0.030 0.229 0.025z"></path>
<path fill="#8e8f99" d="M21.404 18.165h0.633v0.144h-0.826v-1.263h0.198l-0.005 1.119z"></path>
<path fill="#8e8f99" d="M22.695 18.309h-0.198v-1.263h0.198v1.263z"></path>
<path fill="#8e8f99" d="M23.432 17.052c0.012 0.006 0.022 0.014 0.030 0.023l0.847 0.952c-0.001-0.015-0.001-0.030 0-0.045 0-0.014 0-0.028 0-0.041v-0.9h0.173v1.268h-0.1c-0.015 0.001-0.030-0.001-0.043-0.007-0.012-0.006-0.023-0.014-0.031-0.024l-0.846-0.951c0 0.015 0 0.029 0 0.043s0 0.027 0 0.039v0.9h-0.166v-1.263h0.103c0.011 0 0.022 0.002 0.032 0.006z"></path>
<path fill="#8e8f99" d="M25.942 17.046v0.139h-0.702v0.417h0.569v0.134h-0.569v0.431h0.702v0.139h-0.906v-1.26h0.906z"></path>
<path fill="#8e8f99" d="M5.173 9.246l8.801 2.156v7.556l-8.801-2.155v-7.557zM4.608 8.601v8.568l9.928 2.433v-8.567l-9.928-2.434z"></path>
<path fill="#8e8f99" d="M9.93 23.58l-9.93-2.435v-8.567l9.93 2.434v8.568z"></path>
<path fill="#8e8f99" d="M4.773 9.149l8.686 2.129-3.694 3.188-8.687-2.13 3.695-3.187zM4.608 8.601l-4.608 3.976 9.93 2.434 4.607-3.976-9.928-2.434z"></path>
<path fill="#8e8f99" d="M10.488 23.098l4.048-3.494-4.049-0.993v4.487z"></path>
</svg>
