<!-- Generated by IcoMoon.io -->
<svg version="1.1" xmlns="http://www.w3.org/2000/svg" width="32" height="32" viewBox="0 0 32 32">
<title>customerfive</title>
<path fill="#8e8f99" d="M2.434 23.808c0.125 0.139 0.191 0.313 0.188 0.492 0.006 0.116-0.016 0.233-0.067 0.34s-0.127 0.203-0.224 0.281c-0.242 0.165-0.542 0.245-0.845 0.227h-1.486v-3.115h1.455c0.287-0.017 0.572 0.056 0.806 0.207 0.094 0.071 0.168 0.16 0.217 0.261s0.071 0.211 0.065 0.321c0.009 0.172-0.051 0.341-0.169 0.476-0.113 0.124-0.269 0.21-0.443 0.244 0.197 0.032 0.375 0.127 0.502 0.266zM0.691 23.338h0.622c0.141 0.009 0.282-0.027 0.396-0.103 0.047-0.038 0.083-0.085 0.106-0.138s0.032-0.11 0.027-0.166c0.004-0.056-0.005-0.113-0.028-0.166s-0.058-0.1-0.104-0.139c-0.117-0.078-0.262-0.116-0.407-0.105h-0.612v0.817zM1.77 24.533c0.050-0.039 0.089-0.088 0.115-0.143s0.037-0.114 0.032-0.174c0.004-0.060-0.008-0.12-0.034-0.176s-0.066-0.105-0.117-0.144c-0.122-0.081-0.271-0.121-0.423-0.113h-0.652v0.857h0.661c0.149 0.008 0.296-0.030 0.417-0.108z"></path>
<path fill="#8e8f99" d="M5.409 25.148l-0.81-1.217h-0.304v1.217h-0.696v-3.115h1.318c0.332-0.021 0.661 0.074 0.918 0.265 0.184 0.169 0.295 0.392 0.313 0.628s-0.058 0.471-0.215 0.661c-0.163 0.168-0.385 0.28-0.629 0.317l0.862 1.245h-0.757zM4.295 23.506h0.57c0.396 0 0.593-0.157 0.593-0.472 0.004-0.064-0.007-0.128-0.032-0.189s-0.064-0.115-0.114-0.161c-0.125-0.094-0.286-0.139-0.448-0.126h-0.576l0.007 0.948z"></path>
<path fill="#8e8f99" d="M9.215 24.521h-1.388l-0.245 0.627h-0.73l1.274-3.080h0.789l1.269 3.080h-0.73l-0.24-0.627zM9.029 24.049l-0.507-1.315-0.507 1.315h1.014z"></path>
<path fill="#8e8f99" d="M13.98 25.148h-0.691l-1.55-2.118v2.118h-0.69v-3.115h0.69l1.55 2.13v-2.13h0.691v3.115z"></path>
<path fill="#8e8f99" d="M17.925 24.402c-0.143 0.235-0.361 0.426-0.625 0.549-0.301 0.137-0.635 0.204-0.972 0.196h-1.231v-3.115h1.231c0.336-0.008 0.67 0.058 0.972 0.192 0.265 0.12 0.483 0.309 0.625 0.543 0.142 0.253 0.216 0.533 0.216 0.817s-0.074 0.564-0.216 0.817zM17.134 24.327c0.197-0.207 0.306-0.471 0.306-0.743s-0.108-0.536-0.306-0.743c-0.238-0.187-0.549-0.283-0.865-0.265h-0.48v2.016h0.48c0.316 0.018 0.627-0.077 0.865-0.265z"></path>
<path fill="#8e8f99" d="M9.648 4.707c0 0 8.923 3.033 8.734 7.421v7.423c0 0-8.916-3.034-8.73-7.423l-0.003-7.421z"></path>
<path fill="#8e8f99" d="M26.331 17.813c1.685-1.044 3.634-1.691 5.669-1.881v-2.324c-2.345 0.813-4.333 2.289-5.669 4.204z"></path>
<path fill="#8e8f99" d="M25.318 18.513c1.379-2.5 3.77-4.43 6.682-5.391v-6.695c0 0-12.707 4.32-12.439 10.57v10.568c0 0 0.566-0.193 1.457-0.555 0-0.338 0-0.679 0.041-1.021 0.263-2.901 1.795-5.59 4.259-7.474z"></path>
<path fill="#8e8f99" d="M24.11 22.439c0.067-0.733 0.216-1.458 0.445-2.164-1.534 1.628-2.464 3.647-2.657 5.775-0.019 0.201-0.029 0.402-0.034 0.609 0.722-0.312 1.562-0.701 2.444-1.16-0.225-1.007-0.292-2.037-0.198-3.060z"></path>
<path fill="#8e8f99" d="M24.615 22.477c-0.085 0.926-0.032 1.858 0.157 2.771 3.472-1.87 7.373-4.76 7.223-8.252v-0.304c-2.48 0.25-4.801 1.226-6.606 2.779-0.422 0.962-0.683 1.976-0.774 3.007z"></path>
</svg>
