<!-- Generated by IcoMoon.io -->
<svg version="1.1" xmlns="http://www.w3.org/2000/svg" width="32" height="32" viewBox="0 0 32 32">
<title>customerthree</title>
<path fill="#8e8f99" d="M4.953 30.344c0.012 0 0.023 0.003 0.034 0.007s0.020 0.010 0.028 0.017l0.161 0.151c-0.125 0.122-0.279 0.22-0.452 0.286-0.203 0.073-0.421 0.108-0.64 0.103-0.206 0.004-0.411-0.029-0.602-0.096-0.172-0.062-0.327-0.154-0.454-0.271-0.129-0.121-0.229-0.264-0.293-0.419-0.070-0.173-0.105-0.354-0.102-0.537-0.003-0.184 0.035-0.367 0.11-0.539 0.070-0.156 0.176-0.298 0.311-0.419 0.137-0.118 0.301-0.211 0.482-0.273 0.198-0.065 0.408-0.098 0.62-0.096 0.197-0.004 0.393 0.026 0.576 0.087 0.159 0.059 0.305 0.141 0.432 0.242l-0.135 0.161c-0.009 0.011-0.021 0.021-0.034 0.029-0.016 0.009-0.035 0.014-0.054 0.012-0.021-0.001-0.041-0.007-0.058-0.017l-0.072-0.043-0.1-0.055c-0.043-0.020-0.088-0.038-0.135-0.053-0.060-0.018-0.121-0.033-0.183-0.043-0.079-0.012-0.159-0.018-0.239-0.017-0.153-0.002-0.304 0.023-0.446 0.072-0.132 0.046-0.251 0.115-0.349 0.202-0.1 0.093-0.177 0.203-0.227 0.323-0.057 0.137-0.084 0.281-0.082 0.425-0.002 0.147 0.025 0.293 0.082 0.432 0.049 0.118 0.125 0.227 0.223 0.321 0.092 0.087 0.206 0.155 0.333 0.199 0.131 0.046 0.272 0.070 0.414 0.069 0.082 0.001 0.164-0.004 0.245-0.014 0.132-0.014 0.259-0.053 0.371-0.115 0.056-0.032 0.109-0.067 0.159-0.106 0.021-0.017 0.048-0.027 0.076-0.027z"></path>
<path fill="#8e8f99" d="M9.59 29.586c0.003 0.182-0.034 0.363-0.108 0.533-0.065 0.155-0.168 0.296-0.302 0.414s-0.296 0.211-0.475 0.272c-0.393 0.128-0.827 0.128-1.22 0-0.178-0.062-0.338-0.155-0.472-0.273-0.134-0.12-0.238-0.263-0.305-0.419-0.145-0.345-0.145-0.723 0-1.069 0.069-0.156 0.172-0.299 0.305-0.42 0.135-0.114 0.295-0.204 0.472-0.262 0.393-0.13 0.828-0.13 1.221 0 0.178 0.062 0.34 0.155 0.474 0.273 0.132 0.119 0.235 0.26 0.303 0.413 0.074 0.172 0.111 0.354 0.108 0.537zM9.168 29.586c0.003-0.146-0.023-0.291-0.076-0.429-0.045-0.118-0.118-0.228-0.215-0.321-0.094-0.088-0.21-0.157-0.339-0.202-0.286-0.094-0.602-0.094-0.887 0-0.129 0.045-0.245 0.114-0.339 0.202-0.098 0.093-0.172 0.202-0.217 0.321-0.102 0.279-0.102 0.578 0 0.858 0.045 0.119 0.119 0.228 0.217 0.321 0.094 0.088 0.21 0.156 0.339 0.201 0.286 0.091 0.601 0.091 0.887 0 0.129-0.045 0.245-0.113 0.339-0.201 0.096-0.093 0.169-0.203 0.215-0.321 0.054-0.138 0.080-0.283 0.076-0.429z"></path>
<path fill="#8e8f99" d="M12.754 30.035l0.042 0.096c0.016-0.034 0.030-0.065 0.046-0.096 0.015-0.032 0.033-0.064 0.052-0.094l1.026-1.593c0.020-0.027 0.038-0.045 0.058-0.050 0.027-0.007 0.056-0.010 0.084-0.009h0.303v2.592h-0.359v-1.906c0-0.024 0-0.052 0-0.081-0.002-0.030-0.002-0.059 0-0.089l-1.032 1.616c-0.013 0.024-0.034 0.045-0.060 0.059s-0.057 0.022-0.088 0.022h-0.058c-0.031 0-0.062-0.007-0.088-0.021s-0.047-0.035-0.060-0.059l-1.062-1.626c0 0.031 0 0.062 0 0.093s0 0.058 0 0.082v1.906h-0.347v-2.586h0.303c0.028-0.001 0.057 0.002 0.084 0.009 0.025 0.011 0.045 0.028 0.056 0.050l1.048 1.595c0.021 0.029 0.038 0.060 0.052 0.093z"></path>
<path fill="#8e8f99" d="M16.614 29.907v0.971h-0.402v-2.588h0.895c0.169-0.003 0.338 0.016 0.5 0.057 0.13 0.032 0.25 0.086 0.353 0.161 0.089 0.070 0.158 0.157 0.201 0.254 0.047 0.106 0.071 0.218 0.068 0.331 0.002 0.114-0.023 0.226-0.074 0.331-0.048 0.099-0.122 0.188-0.217 0.259-0.103 0.078-0.224 0.136-0.355 0.172-0.156 0.043-0.32 0.063-0.484 0.060l-0.486-0.007zM16.614 29.629h0.486c0.106 0.001 0.211-0.012 0.311-0.039 0.083-0.024 0.16-0.062 0.225-0.111 0.060-0.047 0.107-0.106 0.137-0.172 0.033-0.069 0.049-0.143 0.048-0.218 0.005-0.072-0.009-0.144-0.040-0.211s-0.079-0.127-0.14-0.177c-0.153-0.102-0.346-0.152-0.54-0.139h-0.486v1.067z"></path>
<path fill="#8e8f99" d="M22.011 30.881h-0.317c-0.032 0.001-0.063-0.008-0.088-0.024-0.023-0.016-0.041-0.037-0.052-0.060l-0.273-0.626h-1.371l-0.283 0.626c-0.010 0.023-0.028 0.043-0.050 0.058-0.026 0.018-0.058 0.027-0.090 0.026h-0.317l1.204-2.592h0.418l1.221 2.592zM20.023 29.919h1.132l-0.478-1.055c-0.037-0.079-0.067-0.161-0.090-0.244l-0.046 0.136c-0.014 0.041-0.030 0.079-0.044 0.11l-0.474 1.053z"></path>
<path fill="#8e8f99" d="M23.745 28.301c0.024 0.011 0.045 0.027 0.060 0.046l1.757 1.954c0-0.031 0-0.062 0-0.091s0-0.058 0-0.086v-1.835h0.359v2.592h-0.201c-0.029 0.001-0.057-0.005-0.082-0.015-0.025-0.012-0.047-0.029-0.064-0.048l-1.755-1.952c0.002 0.030 0.002 0.059 0 0.089 0 0.029 0 0.055 0 0.079v1.847h-0.359v-2.592h0.213c0.025-0.001 0.049 0.004 0.072 0.012z"></path>
<path fill="#8e8f99" d="M28.88 29.85v1.029h-0.402v-1.029l-1.11-1.561h0.359c0.031-0.002 0.062 0.006 0.086 0.022 0.022 0.017 0.040 0.036 0.054 0.058l0.695 1.007c0.028 0.043 0.052 0.082 0.072 0.12s0.036 0.074 0.050 0.11l0.052-0.111c0.020-0.041 0.042-0.080 0.068-0.118l0.684-1.014c0.014-0.020 0.032-0.039 0.052-0.055 0.024-0.018 0.055-0.027 0.086-0.026h0.363l-1.112 1.568z"></path>
<path fill="#8e8f99" d="M12.555 23.94c0.175 0.019 0.351 0.034 0.53 0.048 2.709-1.035 5-2.73 6.588-4.872s2.402-4.636 2.339-7.171l-2.985-2.551c0.607 2.699 0.323 5.489-0.82 8.058s-3.1 4.815-5.652 6.488z"></path>
<path fill="#8e8f99" d="M11.489 23.821l0.080 0.014c2.727-1.667 4.806-3.994 5.969-6.681s1.355-5.61 0.552-8.392l-4.252-3.633c1.72 2.986 2.412 6.328 1.996 9.637s-1.923 6.449-4.345 9.055z"></path>
<path fill="#8e8f99" d="M25.909 14.94c-0.722 2.785-2.477 5.297-5.003 7.163-0.738 0.548-1.533 1.036-2.377 1.458 2.057-0.517 3.947-1.43 5.526-2.669s2.803-2.772 3.578-4.48l-1.724-1.472z"></path>
<path fill="#8e8f99" d="M25.233 14.53l-2.455-2.098c-0.047 2.392-0.843 4.729-2.305 6.769s-3.537 3.708-6.008 4.831h0.012c0.551-0 1.101-0.028 1.648-0.084 2.31-0.806 4.351-2.087 5.94-3.731s2.678-3.597 3.168-5.688z"></path>
<path fill="#8e8f99" d="M11.844 3.597l-2.929-2.506c-2.618 0.865-4.87 2.384-6.461 4.36s-2.446 4.317-2.454 6.715v0c0.010 2.65 1.054 5.222 2.967 7.308s4.586 3.568 7.595 4.21c2.686-2.796 4.259-6.252 4.49-9.864s-0.893-7.193-3.207-10.223z"></path>
<path fill="#8e8f99" d="M32 14.144c-0.011-3.144-1.477-6.157-4.079-8.38s-6.129-3.476-9.809-3.485c-1.7-0.002-3.387 0.267-4.973 0.791l17.933 15.322c0.614-1.354 0.929-2.794 0.928-4.247z"></path>
</svg>
